<?xml version="1.0" encoding="UTF-8"?>
<!DOCTYPE svg PUBLIC "-//W3C//DTD SVG 1.1//EN" "http://www.w3.org/Graphics/SVG/1.1/DTD/svg11.dtd">
<!-- Creator: CorelDRAW 2021 (64-Bit) -->
<svg xmlns="http://www.w3.org/2000/svg" xml:space="preserve" width="100px" height="100px" version="1.1" shape-rendering="geometricPrecision" text-rendering="geometricPrecision" image-rendering="optimizeQuality" fill-rule="evenodd" clip-rule="evenodd"
viewBox="0 0 100 100"
 xmlns:xlink="http://www.w3.org/1999/xlink"
 xmlns:xodm="http://www.corel.com/coreldraw/odm/2003">
 <g id="Capa_x0020_1">
  <metadata id="CorelCorpID_0Corel-Layer"/>
  <g id="_2215357794320">
   <path fill="#A9ABAE" d="M0 50.169c0,0.822 0.084,1.304 0.084,2.113 5.19,0 10.11,-0.084 15.301,-0.084l13.186 0c1.657,0 2.732,2.139 1.75,3.863 -0.2,0.35 -0.348,0.635 -0.55,0.971 -1.63,2.711 -3.379,5.941 -5.008,8.771l-5.009 8.769c-0.944,1.69 -6.529,11.25 -6.652,11.776 0.193,0.288 1.708,1.58 2.092,1.966l2.194 2.032c0.551,0.461 0.832,0.905 1.462,1.328 0.067,-0.251 0.249,-0.478 0.387,-0.712 1.553,-2.63 3.114,-5.51 4.669,-8.095 0.298,-0.496 0.548,-0.934 0.835,-1.448l2.567 -4.449c0.557,-0.975 1.149,-1.929 1.712,-2.937l13.588 -23.522c0.269,-0.471 0.576,-0.952 0.841,-1.441 0.277,-0.512 0.58,-0.973 0.871,-1.495l1.268 -2.198c0.148,-0.264 0.334,-0.518 0.397,-0.787l-45.985 0 0 5.579z"/>
   <path fill="#A9ABAE" d="M24.936 95.562c0.312,0.073 0.529,0.222 0.817,0.367 0.327,0.164 0.553,0.253 0.873,0.395l4.988 2.451 7.117 -12.073c0.203,-0.335 0.356,-0.624 0.559,-0.962l8.833 -14.92c0.061,-0.104 0.061,-0.118 0.125,-0.214 0.171,-0.256 0.35,-0.362 0.644,-0.539 1.248,-0.752 2.732,-0.172 3.177,0.56 2.358,3.877 4.756,8.183 7.129,12.144 0.206,0.343 0.386,0.625 0.565,0.957l7.709 13.085c0.22,0.367 1.009,1.646 1.083,1.962l6.037 -3.092c0.309,-0.186 0.596,-0.301 0.894,-0.459 -0.023,-0.282 -0.185,-0.47 -0.322,-0.692l-2.779 -4.66c-0.546,-0.912 -1.034,-1.727 -1.585,-2.642 -0.559,-0.93 -1.045,-1.772 -1.606,-2.705l-12.732 -21.333c-1.065,-1.78 -2.109,-3.556 -3.192,-5.346 -0.423,-0.698 -3.054,-5.013 -3.143,-5.395 -0.269,0.072 -0.25,0.1 -0.479,0.536l-4.324 7.426c-0.556,0.919 -1.022,1.796 -1.585,2.726l-7.438 12.765c-1.706,2.816 -3.419,5.955 -5.136,8.812 -0.547,0.911 -1.005,1.762 -1.553,2.674l-3.15 5.387c-0.264,0.462 -0.504,0.882 -0.769,1.344 -0.187,0.328 -0.723,1.04 -0.757,1.441z"/>
   <path fill="#A9ABAE" d="M81.234 91.505c0.346,-0.093 1.156,-0.999 1.509,-1.281 0.928,-0.74 3.824,-3.513 4.493,-3.96l-7.803 -13.499c-0.201,-0.36 -0.377,-0.638 -0.561,-0.96 -2.535,-4.429 -5.385,-9.153 -7.84,-13.547 -0.267,-0.477 -1.632,-2.567 -1.632,-3.017 0,-1.11 -0.071,-1.724 0.78,-2.517 0.476,-0.442 1.012,-0.618 1.924,-0.612 1.718,0.011 3.439,0.001 5.157,0.001 1.755,0 3.275,0.085 5.072,0.085 5.889,0 11.778,0 17.667,0l0 -7.523 -45.14 0c-0.239,0 -0.707,-0.572 0.303,1.134l4.204 7.377c0.572,1.024 1.121,1.94 1.69,2.959 1.112,1.989 2.231,3.918 3.351,5.863 2.783,4.833 5.61,9.987 8.422,14.74 0.598,1.011 1.093,1.948 1.69,2.958l1.647 2.919c0.563,0.977 1.12,1.968 1.691,2.958l3.376 5.922z"/>
   <path fill="#A9ABAE" d="M39.561 12.045c0,1.205 0.235,2.49 0.557,3.415 1.813,5.199 6.957,8.216 12.581,7.104 1.483,-0.294 2.441,-0.817 3.573,-1.499 0.601,-0.362 1.744,-1.331 2.175,-1.883 0.182,-0.232 0.282,-0.316 0.46,-0.555 5.444,-7.314 0.47,-17.402 -8.78,-17.402 -1.841,0 -3.81,0.66 -5.154,1.44 -0.713,0.414 -1.772,1.182 -2.284,1.773 -0.995,1.147 -1.416,1.536 -2.171,3.155 -0.545,1.169 -0.957,2.776 -0.957,4.452z"/>
   <path fill="#A9ABAE" d="M47.845 40.617l6.001 0.085 0 -9.384c0.235,0.085 0.943,0.969 1.163,1.205l4.212 4.833c0.181,0.234 0.198,0.247 0.395,0.449 0.194,0.199 0.208,0.271 0.381,0.466l0.76 0.845c0.696,0.7 0.997,1.494 1.704,1.508 1.233,0.025 6.719,-0.075 7.418,0.036 0.267,0.043 0.535,0.121 0.535,-0.212l0 -13.863 -6.086 0 0 9.298c-0.256,-0.171 -1.313,-1.443 -1.584,-1.713l-1.1 -1.181c-0.678,-0.666 -1.853,-2.11 -2.664,-2.916l-2.932 -3.239c-0.102,-0.128 -0.113,-0.249 -0.342,-0.249l-7.861 0 0 14.032z"/>
   <path fill="#A9ABAE" d="M5.241 30.135c0,1.598 0.506,2.454 1.916,3.24 2.153,1.2 6.889,1.597 9.575,2.175 2.357,0.507 1.481,2.193 -1.094,2.193 -1.198,0 -4.48,0.124 -4.48,-1.437l0 -0.592 -6.002 0c-0.629,0 0.174,2.111 0.374,2.416 0.508,0.774 1.021,1.088 1.879,1.502 2.236,1.078 5.632,0.985 8.314,0.985 3.07,0 8.96,-0.706 8.96,-4.565 0,-1.326 -0.984,-2.368 -1.887,-2.846 -3.912,-2.076 -10.962,-1.533 -10.962,-3.24 0,-1.418 4.347,-1.063 5.209,-0.729 0.583,0.226 0.987,0.523 1.046,1.236l5.918 0c0,-0.516 -0.104,-1.081 -0.253,-1.437 -0.202,-0.481 -0.409,-0.742 -0.769,-1.091l-0.893 -0.629c-1.618,-0.819 -3.764,-1.162 -5.608,-1.154 -0.684,0.003 -1.125,-0.079 -1.689,-0.089 -0.639,-0.012 -0.939,0.096 -1.609,0.089 -2.403,-0.025 -7.945,0.825 -7.945,3.973z"/>
   <path fill="#A9ABAE" d="M84.277 30.051c0.234,0.441 0.445,0.787 0.714,1.231l1.435 2.452c0.196,0.334 0.649,0.975 0.725,1.304l-6.001 0c0.07,-0.302 0.203,-0.422 0.354,-0.66 0.367,-0.578 2.478,-4.111 2.773,-4.327zm-12.933 10.651l6.34 0c0.236,-0.446 0.456,-0.781 0.705,-1.239 0.19,-0.348 0.648,-0.982 0.732,-1.298l9.806 0c0.218,0.413 0.464,0.812 0.703,1.242 0.258,0.464 0.459,0.884 0.734,1.295l7.016 0 -9.076 -13.748c-0.128,-0.2 -0.163,-0.369 -0.392,-0.369l-6.678 0c-0.265,0 -1.11,1.369 -1.301,1.657l-1.844 2.636c-0.225,0.335 -0.383,0.569 -0.623,0.899l-1.235 1.808c-0.41,0.604 -0.806,1.117 -1.218,1.741l-3.078 4.445c-0.192,0.271 -0.497,0.58 -0.591,0.931z"/>
   <polygon fill="#A9ABAE" points="27.557,40.617 44.717,40.617 44.717,37.574 33.897,37.574 33.897,34.869 43.533,34.869 43.533,31.826 33.897,31.826 33.897,29.628 44.294,29.628 44.294,26.585 27.557,26.585 "/>
  </g>
 </g>
</svg>
